<svg width="24" height="24" viewBox="0 0 24 24" fill="none" xmlns="http://www.w3.org/2000/svg">
<path fill-rule="evenodd" clip-rule="evenodd" d="M12.2181 0C5.7108 0 0.435743 5.23411 0.435743 11.6912C0.435743 13.8998 1.05349 15.9654 2.12637 17.7276L0 24L6.52319 21.9275C8.21108 22.8538 10.1523 23.3817 12.2181 23.3817C18.7249 23.3817 24 18.1478 24 11.6912C24 5.23411 18.7249 0 12.2181 0ZM12.2181 21.5199C10.2059 21.5199 8.33242 20.921 6.76819 19.8943L2.96152 21.104L4.1987 17.4537C3.01292 15.8333 2.31227 13.8422 2.31227 11.6909C2.31227 6.27111 6.75597 1.86183 12.2181 1.86183C17.6799 1.86183 22.1237 6.27111 22.1237 11.6909C22.1237 17.1106 17.6799 21.5199 12.2181 21.5199Z" fill="white"/>
<path fill-rule="evenodd" clip-rule="evenodd" d="M9.4542 6.85554C9.26335 6.39913 9.11715 6.38366 8.82234 6.36976C8.72122 6.36495 8.61158 6.36035 8.49161 6.36035C8.11179 6.36035 7.71797 6.47135 7.48067 6.71225C7.19186 7.00542 6.46973 7.69208 6.46973 9.10199C6.46973 10.5121 7.50468 11.8747 7.64888 12.0659C7.79349 12.257 9.66739 15.1929 12.5829 16.3916C14.8585 17.3269 15.5342 17.2436 16.0533 17.1309C16.8088 16.9673 17.7573 16.4152 17.998 15.7463C18.2387 15.077 18.2387 14.5033 18.1665 14.3842C18.0943 14.2645 17.9017 14.1931 17.6129 14.0494C17.3241 13.9061 15.904 13.2129 15.6393 13.1175C15.3745 13.0219 15.1297 13.0511 14.9261 13.3306C14.6451 13.7165 14.3748 14.1132 14.151 14.3483C13.9753 14.5329 13.6926 14.5586 13.4495 14.4561C13.1298 14.3209 12.23 14.0098 11.1267 13.0337C10.2683 12.2743 9.68856 11.3362 9.52003 11.0492C9.35151 10.7626 9.50518 10.5915 9.63505 10.4356C9.78314 10.2576 9.91975 10.1298 10.0642 9.96267C10.2086 9.79524 10.2892 9.70609 10.3855 9.51462C10.4818 9.32356 10.417 9.12634 10.3448 8.98284C10.2723 8.83924 9.69414 7.42954 9.4542 6.85554Z" fill="white"/>
</svg>
