<svg width="24" height="24" viewBox="0 0 24 24" fill="none" xmlns="http://www.w3.org/2000/svg">
<rect x="0.72" y="0.72" width="21.6" height="21.6" rx="10.8" stroke="white" stroke-width="1.44"/>
<path fill-rule="evenodd" clip-rule="evenodd" d="M14.0798 5.75977C14.9284 5.75977 15.7424 6.09692 16.3425 6.69701C16.9426 7.29716 17.2798 8.11109 17.2798 8.95978V14.0798C17.2798 14.9284 16.9426 15.7424 16.3425 16.3425C15.7424 16.9426 14.9284 17.2798 14.0798 17.2798H8.95978C8.11109 17.2798 7.29716 16.9426 6.69701 16.3425C6.09692 15.7424 5.75977 14.9284 5.75977 14.0798V8.95978C5.75977 8.11109 6.09692 7.29716 6.69701 6.69701C7.29716 6.09692 8.11109 5.75977 8.95978 5.75977H14.0798ZM14.0798 7.03978H8.95978C8.45055 7.03978 7.9622 7.24205 7.6021 7.6021C7.24205 7.9622 7.03978 8.45055 7.03978 8.95978V14.0798C7.03978 14.589 7.24205 15.0773 7.6021 15.4374C7.9622 15.7975 8.45055 15.9998 8.95978 15.9998H14.0798C14.589 15.9998 15.0773 15.7975 15.4374 15.4374C15.7975 15.0773 15.9998 14.589 15.9998 14.0798V8.95978C15.9998 8.45055 15.7975 7.9622 15.4374 7.6021C15.0773 7.24205 14.589 7.03978 14.0798 7.03978ZM11.5198 8.95978C12.1987 8.95978 12.8498 9.22949 13.3299 9.70959C13.81 10.1897 14.0798 10.8408 14.0798 11.5198C14.0798 12.1987 13.81 12.8498 13.3299 13.3299C12.8498 13.81 12.1987 14.0798 11.5198 14.0798C10.8408 14.0798 10.1897 13.81 9.70959 13.3299C9.22949 12.8498 8.95978 12.1987 8.95978 11.5198C8.95978 10.8408 9.22949 10.1897 9.70959 9.70959C10.1897 9.22949 10.8408 8.95978 11.5198 8.95978ZM11.5198 10.2397C11.1803 10.2397 10.8547 10.3746 10.6147 10.6147C10.3746 10.8547 10.2397 11.1803 10.2397 11.5198C10.2397 11.8592 10.3746 12.1848 10.6147 12.4249C10.8547 12.6649 11.1803 12.7998 11.5198 12.7998C11.8592 12.7998 12.1848 12.6649 12.4249 12.4249C12.6649 12.1848 12.7998 11.8592 12.7998 11.5198C12.7998 11.1803 12.6649 10.8547 12.4249 10.6147C12.1848 10.3746 11.8592 10.2397 11.5198 10.2397ZM14.3998 7.99978C14.5695 7.99978 14.7323 8.06717 14.8523 8.18722C14.9724 8.30722 15.0398 8.47004 15.0398 8.63977C15.0398 8.80949 14.9724 8.97231 14.8523 9.09231C14.7323 9.21236 14.5695 9.27975 14.3998 9.27975C14.23 9.27975 14.0672 9.21236 13.9472 9.09231C13.8272 8.97231 13.7598 8.80949 13.7598 8.63977C13.7598 8.47004 13.8272 8.30722 13.9472 8.18722C14.0672 8.06717 14.23 7.99978 14.3998 7.99978Z" fill="white"/>
</svg>
