<svg width="24" height="24" viewBox="0 0 24 24" fill="none" xmlns="http://www.w3.org/2000/svg">
<rect x="0.72" y="1.67996" width="21.6" height="21.6" rx="10.8" stroke="white" stroke-width="1.44"/>
<path d="M16.3136 16.1934C15.7606 16.1802 15.2208 16.1802 14.6679 16.1934C14.5493 16.1934 14.523 16.167 14.523 16.0485C14.523 15.0742 14.523 14.0868 14.523 13.1125C14.523 12.8887 14.5098 12.6648 14.444 12.4542C14.2465 11.7695 13.4565 11.5194 12.8904 11.9802C12.5876 12.2172 12.4691 12.5463 12.4691 12.9413C12.4691 13.8629 12.4691 14.7846 12.4691 15.7062C12.4691 15.8247 12.4559 15.9432 12.4691 16.0749C12.4823 16.1802 12.4296 16.2065 12.3374 16.1934C11.7713 16.1934 11.2183 16.1934 10.6522 16.1934C10.5468 16.1934 10.5205 16.167 10.5205 16.0617C10.5337 15.2322 10.5337 14.4028 10.5337 13.5601C10.5337 12.5332 10.5337 11.5062 10.5205 10.4924C10.5205 10.3739 10.5468 10.3476 10.6522 10.3476C11.2183 10.3476 11.7713 10.3476 12.3374 10.3476C12.4428 10.3476 12.4691 10.3739 12.4691 10.4793C12.4691 10.6899 12.4691 10.9006 12.4691 11.1507C12.5086 11.1112 12.5218 11.0981 12.5349 11.0849C13.0484 10.3344 13.7726 10.1238 14.6283 10.2554C15.6158 10.4134 16.2478 11.0981 16.4057 12.1513C16.4452 12.4015 16.4584 12.6516 16.4584 12.9018C16.4584 13.9551 16.4584 14.9952 16.4584 16.0485C16.4584 16.1539 16.4321 16.1934 16.3136 16.1934Z" fill="white"/>
<path d="M9.46671 13.2705C9.46671 14.1922 9.46671 15.1138 9.46671 16.0354C9.46671 16.1539 9.44035 16.1934 9.32184 16.1934C8.76888 16.1802 8.21592 16.1934 7.66291 16.1934C7.5576 16.1934 7.53125 16.1671 7.53125 16.0618C7.53125 14.2053 7.53125 12.3357 7.53125 10.4793C7.53125 10.3872 7.5576 10.3477 7.66291 10.3477C8.22907 10.3477 8.79523 10.3477 9.36135 10.3477C9.47986 10.3477 9.49301 10.3872 9.49301 10.4925C9.46671 11.4141 9.46671 12.3357 9.46671 13.2705Z" fill="white"/>
<path d="M9.55861 8.82063C9.42694 9.34728 8.88714 9.65011 8.26832 9.54475C7.61005 9.43944 7.24136 8.79427 7.47838 8.16231C7.63635 7.76731 8.01819 7.53034 8.50534 7.54349C9.24262 7.53034 9.72978 8.1228 9.55861 8.82063Z" fill="white"/>
</svg>
