<svg width="20" height="20" viewBox="0 0 20 20" fill="none" xmlns="http://www.w3.org/2000/svg">
<path fill-rule="evenodd" clip-rule="evenodd" d="M2 10C2 7.87827 2.84285 5.84344 4.34315 4.34315C5.84344 2.84285 7.87827 2 10 2C12.1217 2 14.1566 2.84285 15.6569 4.34315C17.1571 5.84344 18 7.87827 18 10C18 12.1217 17.1571 14.1566 15.6569 15.6569C14.1566 17.1571 12.1217 18 10 18C7.87827 18 5.84344 17.1571 4.34315 15.6569C2.84285 14.1566 2 12.1217 2 10ZM13.35 8.35C13.4222 8.25371 13.4573 8.13461 13.4487 8.01456C13.4402 7.8945 13.3887 7.78155 13.3036 7.69645C13.2184 7.61134 13.1055 7.55979 12.9854 7.55126C12.8654 7.54273 12.7463 7.57779 12.65 7.65L9 11.29L7.35 9.65C7.30702 9.59269 7.25222 9.54529 7.18933 9.511C7.12643 9.47671 7.0569 9.45634 6.98544 9.45126C6.91399 9.44618 6.84228 9.45652 6.77516 9.48156C6.70805 9.50661 6.6471 9.54579 6.59645 9.59645C6.54579 9.6471 6.50661 9.70805 6.48156 9.77516C6.45652 9.84228 6.44618 9.91399 6.45126 9.98544C6.45634 10.0569 6.47671 10.1264 6.511 10.1893C6.54529 10.2522 6.59269 10.307 6.65 10.35L8.65 12.35C8.85 12.55 9.15 12.55 9.35 12.35L13.35 8.35Z" fill="#3D377B"/>
</svg>
