<svg width="24" height="25" viewBox="0 0 24 25" fill="none" xmlns="http://www.w3.org/2000/svg">
<circle cx="12" cy="12.1914" r="12" fill="#F7415F"/>
<path d="M12 6.19141C8.67728 6.19141 6 8.86869 6 12.1914C6 15.5141 8.67728 18.1914 12 18.1914C15.3227 18.1914 18 15.5141 18 12.1914C18 11.546 17.9135 10.9023 17.6827 10.302L16.9327 11.0376C17.0246 11.4072 17.0769 11.7767 17.0769 12.1914C17.0769 15.0075 14.8161 17.2683 12 17.2683C9.18389 17.2683 6.92308 15.0075 6.92308 12.1914C6.92308 9.3753 9.18389 7.11448 12 7.11448C13.3846 7.11448 14.6286 7.66617 15.5048 8.54237L16.1538 7.89333C15.0919 6.83143 13.6154 6.19141 12 6.19141ZM16.8365 8.52794L12 13.3741L10.024 11.3981L9.36058 12.0616L11.6683 14.3693L12 14.6866L12.3317 14.3693L17.5 9.19141L16.8365 8.52794Z" fill="white"/>
</svg>
