<svg width="24" height="25" viewBox="0 0 24 25" fill="none" xmlns="http://www.w3.org/2000/svg">
<circle cx="12" cy="12.1914" r="12" fill="#3D377B"/>
<path d="M12 6.19141C8.69141 6.19141 6 8.88281 6 12.1914C6 15.5 8.69141 18.1914 12 18.1914C15.3086 18.1914 18 15.5 18 12.1914C18 8.88281 15.3086 6.19141 12 6.19141ZM12 7.19141C14.7676 7.19141 17 9.42383 17 12.1914C17 14.959 14.7676 17.1914 12 17.1914C9.23242 17.1914 7 14.959 7 12.1914C7 9.42383 9.23242 7.19141 12 7.19141ZM11 8.69141V13.6914H15V12.6914H12V8.69141H11Z" fill="white"/>
</svg>
