<svg width="24" height="24" viewBox="0 0 24 24" fill="none" xmlns="http://www.w3.org/2000/svg">
<rect x="0.72" y="1.43973" width="21.6" height="21.6" rx="10.8" stroke="white" stroke-width="1.44"/>
<path fill-rule="evenodd" clip-rule="evenodd" d="M15.6976 9.16727C16.1357 9.2852 16.4811 9.63061 16.599 10.0686C16.818 10.8689 16.8096 12.5368 16.8096 12.5368C16.8096 12.5368 16.8096 14.1964 16.599 14.9966C16.4811 15.4347 16.1357 15.78 15.6976 15.898C14.8974 16.1086 11.6963 16.1086 11.6963 16.1086C11.6963 16.1086 8.50363 16.1086 7.69493 15.8896C7.25688 15.7716 6.91152 15.4262 6.79358 14.9882C6.58301 14.1964 6.58301 12.5284 6.58301 12.5284C6.58301 12.5284 6.58301 10.8689 6.79358 10.0686C6.91152 9.63061 7.26533 9.2768 7.69493 9.15887C8.49523 8.94824 11.6963 8.94824 11.6963 8.94824C11.6963 8.94824 14.8974 8.94824 15.6976 9.16727ZM13.3399 12.5273L10.678 14.0604V10.9941L13.3399 12.5273Z" fill="white"/>
</svg>
